<svg fill="#ffffff" width="800" height="800" viewBox="0 0 32 32" xmlns="http://www.w3.org/2000/svg"><path d="M21.924 5.128a1 1 0 00-.847 1.811 12.039 12.039 0 016.699 13.371c-1.341 6.527-7.739 10.744-14.268 9.407-3.162-.649-5.756-2.491-7.533-5.186s-2.398-5.922-1.748-9.084c.772-3.757 3.207-6.854 6.68-8.497a1 1 0 10-.855-1.808c-4.047 1.915-6.884 5.523-7.784 9.902a13.998 13.998 0 002.037 10.587c2.071 3.14 5.115 5.287 8.801 6.044.951.195 1.9.289 2.836.289 6.546 0 12.427-4.598 13.793-11.254a14.032 14.032 0 00-7.81-15.585zM16 13a1 1 0 001-1V1a1 1 0 00-2 0v11a1 1 0 001 1z"/></svg>