<svg width="800" height="800" viewBox="0 0 28 28" fill="none" xmlns="http://www.w3.org/2000/svg"><g fill="#fff"><path d="M14 9.5a4.5 4.5 0 100 9 4.5 4.5 0 000-9zM11 14a3 3 0 116 0 3 3 0 01-6 0z"/><path d="M21.71 22.395l-1.728-.759a1.72 1.72 0 00-1.542.086c-.467.27-.765.747-.824 1.285l-.208 1.878a.923.923 0 01-.703.797 11.67 11.67 0 01-5.412 0 .923.923 0 01-.702-.796l-.208-1.877a1.7 1.7 0 00-.838-1.28 1.694 1.694 0 00-1.526-.087l-1.728.759a.92.92 0 01-1.043-.215 12.065 12.065 0 01-2.707-4.672.924.924 0 01.334-1.016l1.527-1.128a1.7 1.7 0 000-2.74l-1.527-1.125a.924.924 0 01-.334-1.017A12.058 12.058 0 015.25 5.821a.92.92 0 011.043-.214l1.72.757a1.707 1.707 0 002.371-1.376l.21-1.878a.923.923 0 01.715-.799c.881-.196 1.78-.3 2.704-.31.902.01 1.8.114 2.68.31a.922.922 0 01.715.8l.209 1.878a1.701 1.701 0 001.688 1.518c.233 0 .464-.049.68-.144l1.72-.757a.92.92 0 011.043.214 12.057 12.057 0 012.708 4.667.924.924 0 01-.333 1.017l-1.525 1.126c-.435.32-.698.829-.698 1.37 0 .54.263 1.049.699 1.37l1.526 1.127c.316.233.45.64.334 1.016a12.064 12.064 0 01-2.707 4.667.92.92 0 01-1.043.215zm-5.447-.198a3.162 3.162 0 011.425-1.773 3.22 3.22 0 012.896-.161l1.344.59a10.564 10.564 0 001.97-3.398l-1.189-.877a3.207 3.207 0 01-1.309-2.579c0-1.027.497-1.98 1.307-2.576l.002-.001 1.187-.877a10.56 10.56 0 00-1.971-3.397l-1.333.586-.002.001c-.406.18-.843.272-1.286.272a3.202 3.202 0 01-3.178-2.852v-.002l-.163-1.46a11.476 11.476 0 00-1.95-.193c-.674.009-1.33.074-1.975.193l-.163 1.462A3.207 3.207 0 017.41 7.737l-1.336-.588a10.559 10.559 0 00-1.971 3.397l1.19.877a3.201 3.201 0 010 5.155l-1.19.879a10.565 10.565 0 001.97 3.402l1.345-.59a3.194 3.194 0 012.878.16 3.2 3.2 0 011.579 2.411v.005l.162 1.464c1.297.255 2.63.255 3.927 0l.162-1.467c.024-.22.07-.436.138-.645z"/></g></svg>